<svg id="Layer_4" data-name="Layer 4" xmlns="http://www.w3.org/2000/svg" xmlns:xlink="http://www.w3.org/1999/xlink" viewBox="0 0 461 461"><defs><style>.cls-1{fill:url(#linear-gradient);}.cls-2{fill:url(#linear-gradient-2);}</style><linearGradient id="linear-gradient" x1="759.39" y1="609" x2="1092.75" y2="275.64" gradientUnits="userSpaceOnUse"><stop offset="0" stop-color="#f7931e"/><stop offset="0.32" stop-color="#fba510"/><stop offset="0.69" stop-color="#feb404"/><stop offset="1" stop-color="#ffb900"/></linearGradient><linearGradient id="linear-gradient-2" x1="1126.97" y1="769.53" x2="859.97" y2="502.53" gradientUnits="userSpaceOnUse"><stop offset="0" stop-color="#2e318a"/><stop offset="0.58" stop-color="#1159a9"/><stop offset="1" stop-color="#0071bc"/></linearGradient></defs><path class="cls-1" d="M1190.27,418.38v25.69L1067.37,567a38.43,38.43,0,0,1-54.36,0h0a19.22,19.22,0,0,0-27.18,27.19,38.42,38.42,0,0,1,10,37.14,38.45,38.45,0,1,1-64.33-37.14L1013,512.6a76.83,76.83,0,0,0-49.56-131.09,73.68,73.68,0,0,0-9.63,0,76.81,76.81,0,0,0-71.91,71.92v.11a10.17,10.17,0,0,1-9.52,9.51h-.1a77.6,77.6,0,0,0-15.1,2.46,76,76,0,0,0-19.14,8,77,77,0,0,0-15.31,11.88l-93.46,93.46V418.38A109.2,109.2,0,0,1,838.46,309.19h242.62A109.2,109.2,0,0,1,1190.27,418.38Z" transform="translate(-729.27 -309.19)"/><path class="cls-2" d="M1094.55,594.15l95.72-95.72V661a109.2,109.2,0,0,1-109.19,109.19H838.46A109.2,109.2,0,0,1,729.27,661V633.24L849.91,512.6a38.22,38.22,0,0,1,17.23-10,38.44,38.44,0,0,1,37.14,10,19.21,19.21,0,0,0,27.17,0h0a19.22,19.22,0,0,0,0-27.18,38.45,38.45,0,0,1,17.23-64.32,38.62,38.62,0,0,1,19.91,0,38.49,38.49,0,0,1,27.19,27.18,38.42,38.42,0,0,1-10,37.14L904.28,567a76.65,76.65,0,0,0-22.37,49.55,73.53,73.53,0,0,0,0,9.62,76.81,76.81,0,0,0,71.91,71.92,77.36,77.36,0,0,0,9.63,0,76.8,76.8,0,0,0,71.92-71.92v-.09a10.17,10.17,0,0,1,9.52-9.53h.1a77.38,77.38,0,0,0,15.09-2.46,76.44,76.44,0,0,0,34.46-19.91Z" transform="translate(-729.27 -309.19)"/></svg>